<?xml version="1.0" standalone="no"?>
<!DOCTYPE svg PUBLIC "-//W3C//DTD SVG 20010904//EN"
 "http://www.w3.org/TR/2001/REC-SVG-20010904/DTD/svg10.dtd">
<svg version="1.0" xmlns="http://www.w3.org/2000/svg"
 width="425.000000pt" height="123.000000pt" viewBox="0 0 425.000000 123.000000"
 preserveAspectRatio="xMidYMid meet">

<g transform="translate(0.000000,123.000000) scale(0.100000,-0.100000)"
fill="#6C70D8" stroke="none">
<path d="M280 690 l0 -260 60 0 60 0 0 109 c0 59 5 122 11 139 19 56 101 64
128 13 6 -11 11 -74 11 -140 l0 -121 60 0 60 0 0 143 c0 157 -10 192 -63 231
-39 28 -121 28 -170 -2 l-37 -21 0 84 0 85 -60 0 -60 0 0 -260z"/>
<path d="M1660 690 l0 -260 60 0 60 0 0 260 0 260 -60 0 -60 0 0 -260z"/>
<path d="M2150 690 l0 -260 60 0 60 0 0 109 c0 59 5 122 11 139 19 56 101 64
128 13 6 -11 11 -74 11 -140 l0 -121 60 0 60 0 0 143 c0 157 -10 192 -63 231
-39 28 -121 28 -170 -2 l-37 -21 0 84 0 85 -60 0 -60 0 0 -260z"/>
<path d="M3850 865 c0 -47 -2 -85 -5 -85 -3 0 -18 9 -33 20 -41 30 -94 36
-147 15 -58 -22 -92 -67 -105 -137 -25 -135 48 -248 160 -248 44 0 110 25 110
42 0 5 5 6 10 3 6 -3 10 -15 10 -26 0 -16 7 -19 55 -19 l55 0 0 260 0 260 -55
0 -55 0 0 -85z m-31 -171 c14 -18 21 -41 21 -69 0 -36 -5 -48 -31 -69 -34 -29
-50 -32 -82 -14 -35 18 -46 40 -47 87 0 59 28 91 81 91 29 0 42 -6 58 -26z"/>
<path d="M1890 870 c0 -47 -2 -50 -25 -50 -23 0 -25 -3 -25 -50 0 -47 2 -50
25 -50 l25 0 0 -100 c0 -149 24 -180 142 -184 l53 -1 3 46 3 46 -41 7 -40 6 0
90 0 90 35 0 35 0 0 50 0 50 -35 0 -35 0 0 50 0 50 -60 0 -60 0 0 -50z"/>
<path d="M855 816 c-140 -52 -164 -270 -39 -355 38 -26 111 -38 169 -27 40 8
125 83 125 111 0 22 -116 21 -141 -1 -28 -25 -69 -21 -96 10 -13 15 -23 31
-23 37 0 5 57 9 135 9 l135 0 0 45 c0 68 -37 132 -92 161 -42 22 -127 26 -173
10z m125 -106 c33 -33 24 -40 -56 -40 -79 0 -81 2 -46 43 21 24 77 22 102 -3z"/>
<path d="M1264 811 c-53 -24 -82 -66 -95 -134 -24 -134 49 -247 161 -247 44 0
110 25 110 42 0 5 5 6 10 3 6 -3 10 -15 10 -26 0 -16 7 -19 55 -19 l55 0 0
195 0 195 -55 0 c-48 0 -55 -2 -55 -20 0 -25 -4 -25 -39 1 -41 30 -106 34
-157 10z m165 -117 c14 -18 21 -41 21 -69 0 -36 -5 -48 -31 -69 -34 -29 -50
-32 -82 -14 -35 18 -46 40 -47 87 0 59 28 91 81 91 29 0 42 -6 58 -26z"/>
<path d="M2804 816 c-18 -8 -35 -19 -38 -25 -11 -18 -26 -13 -26 9 0 18 -7 20
-60 20 l-60 0 0 -285 0 -285 60 0 60 0 0 115 0 116 31 -23 c42 -32 144 -33
186 -2 98 72 98 282 -1 344 -44 27 -113 34 -152 16z m85 -122 c42 -53 17 -143
-44 -158 -57 -14 -118 57 -100 116 21 69 104 93 144 42z"/>
<path d="M3199 820 c-78 -23 -119 -89 -119 -191 0 -121 55 -190 157 -197 50
-3 63 0 96 22 l37 25 0 -24 c0 -24 3 -25 60 -25 l60 0 0 195 0 195 -60 0 c-53
0 -60 -2 -60 -20 0 -11 -4 -20 -10 -20 -5 0 -10 4 -10 9 0 12 -75 41 -103 40
-12 0 -34 -4 -48 -9z m138 -122 c44 -49 35 -126 -18 -153 -40 -21 -57 -19 -90
14 -59 60 -26 161 54 161 22 0 40 -8 54 -22z"/>
</g>
</svg>
